<svg xmlns="http://www.w3.org/2000/svg" version="1.1" xmlns:xlink="http://www.w3.org/1999/xlink" xmlns:svgjs="http://svgjs.dev/svgjs" width="1000" height="1000"><g clip-path="url(#SvgjsClipPath1123)"><rect width="1000" height="1000" fill="#fff435"></rect><g transform="matrix(13.157894736842104,0,0,13.157894736842104,328.9473684210526,250.00000000000003)"><svg xmlns="http://www.w3.org/2000/svg" version="1.1" xmlns:xlink="http://www.w3.org/1999/xlink" xmlns:svgjs="http://svgjs.dev/svgjs" width="26" height="38"><svg width="26" height="38" viewBox="0 0 26 38" fill="none" xmlns="http://www.w3.org/2000/svg">
<path d="M23.2146 0C21.8092 0 20.6699 1.13928 20.6699 2.54463C20.6699 3.95009 21.8092 5.08938 23.2146 5.08938C24.6199 5.08938 25.7592 3.95009 25.7592 2.54463C25.7587 1.13952 24.6197 0.000598426 23.2146 0Z" fill="#5D0A0A"></path>
<path d="M23.1412 21.9971L1.1543 32.3799L1.31324 32.6024C3.78534 36.1639 7.92034 38.1972 12.2502 37.9805C18.9052 37.5371 23.9643 31.6189 23.5122 24.3734C23.4632 23.673 23.3614 22.9773 23.2079 22.2922L23.1412 21.9971Z" fill="#5D0A0A"></path>
<path d="M16.8657 2.01282C16.7417 1.94879 16.6166 1.88607 16.4895 1.82611C13.0364 0.198031 9.19316 0.40748 6.07775 2.05806C3.96507 3.17736 2.18702 4.95911 1.09238 7.28064C-1.61622 13.0254 0.885566 19.8974 6.68061 22.6298C6.78162 22.6774 6.88311 22.7232 6.98485 22.7676C10.6307 24.3633 14.6698 23.9494 17.8113 21.983C19.6071 20.8591 21.1097 19.2282 22.0778 17.1753C24.7269 11.5568 22.3912 4.86037 16.8657 2.01282ZM15.1835 11.6742C15.0766 12.2878 14.8734 12.9254 14.5792 13.57L14.5256 13.6836C14.2151 14.3214 13.8525 14.8835 13.4474 15.3564C13.0471 15.8233 12.6127 16.1948 12.1561 16.4607C11.7068 16.722 11.2492 16.8741 10.7957 16.9127C10.3558 16.9505 9.93341 16.879 9.53905 16.7029L9.53833 16.7045L9.4901 16.6818L9.48244 16.6781L9.4342 16.6554L9.43492 16.6538C9.0475 16.4613 8.72387 16.181 8.47313 15.8176C8.21413 15.4429 8.04023 14.993 7.95621 14.4804C7.87063 13.9587 7.88093 13.3872 7.98649 12.7815C8.09337 12.1679 8.29659 11.5303 8.59078 10.8857L8.64428 10.7722C8.95474 10.1347 9.31727 9.57226 9.72264 9.09938C10.1228 8.63273 10.5571 8.26122 11.0139 7.99528C11.4629 7.73401 11.9207 7.58189 12.3746 7.54312C12.8144 7.50553 13.2365 7.57686 13.6308 7.75304L13.6317 7.75137L13.68 7.77423L13.6877 7.77782L13.7359 7.80056L13.7352 7.80223C14.1225 7.99457 14.4463 8.27499 14.6972 8.63823C14.9559 9.01285 15.1297 9.46263 15.2139 9.9756C15.2991 10.4969 15.2891 11.0684 15.1835 11.6742Z" fill="#5D0A0A"></path>
</svg></svg></g></g><defs><clipPath id="SvgjsClipPath1123"><rect width="1000" height="1000" x="0" y="0" rx="500" ry="500"></rect></clipPath></defs></svg>