<svg width="699" height="139" viewBox="0 0 699 139" fill="none" xmlns="http://www.w3.org/2000/svg">
<path d="M441.696 70.3199C441.691 55.4489 438.441 44.1046 432.039 36.6015C425.702 29.1729 416.505 25.4072 404.705 25.4072C398.433 25.4788 392.317 27.368 387.022 30.8677C381.38 34.3555 376.779 39.35 373.701 45.3196L371.895 48.8279L370.746 45.052C368.969 39.2124 365.306 34.0929 360.43 30.6364C355.247 27.0491 349.229 25.2396 343.03 25.4072C336.819 25.3413 330.694 27.1207 325.333 30.575C319.872 34.0543 315.643 39.1124 313.1 45.2025L310.02 52.5801V28.7517H268.273V135.139L314.146 135.129V69.631C314.146 64.5461 318.282 60.4099 323.367 60.4099C328.451 60.4099 332.587 64.1517 332.587 70.5568V135.129H377.584V69.631C377.584 64.5461 381.721 60.4099 386.805 60.4099C391.889 60.4099 396.026 63.8898 396.026 70.5568V135.129H442.45C442.123 133.297 441.696 129.264 441.696 120.682V70.3199Z" fill="#5D0A0A"/>
<path d="M258.466 28.625H212.45V92.4181C212.45 99.5744 208.669 102.927 203.841 103.239C201.262 103.403 198.807 102.531 196.925 100.767C195.072 99.03 194.009 97.2215 194.009 92.6141V28.625H148.652V93.4205C148.652 107.815 152.156 119.034 159.062 126.768C162.155 130.255 165.904 132.948 170.27 134.856L170.264 134.865C170.601 135.009 170.939 135.148 171.276 135.281C171.515 135.378 171.758 135.468 172.001 135.559C172.337 135.685 172.671 135.805 173.006 135.922C173.187 135.984 173.367 136.049 173.549 136.109C184.248 139.639 194.092 138.047 194.092 138.047C195.956 137.792 197.723 137.423 199.419 136.94C200.174 136.741 200.914 136.52 201.639 136.28C202.364 136.04 203.075 135.78 203.773 135.504C204.567 135.176 205.346 134.826 206.111 134.453C206.876 134.083 207.625 133.689 208.353 133.278C208.955 132.928 209.541 132.562 210.114 132.179C210.686 131.796 211.244 131.396 211.783 130.977C213.356 129.757 215.036 128.293 216.563 126.667C218.089 125.041 219.462 123.254 220.419 121.387C220.812 120.524 221.115 119.648 221.325 118.77V135.002L259.221 135.012C258.892 133.182 258.466 129.15 258.466 120.555V28.625Z" fill="#5D0A0A"/>
<path d="M642.405 23.6436C641.705 23.6181 641.004 23.6016 640.298 23.6016C621.144 23.6016 604.154 32.7749 593.548 46.9308C586.354 56.5305 582.099 68.4198 582.099 81.297C582.099 113.161 608.156 138.993 640.298 138.993C640.859 138.993 641.417 138.983 641.973 138.967C661.933 138.408 679.378 127.888 689.425 112.242C695.169 103.3 698.499 92.684 698.499 81.297C698.499 50.1328 673.572 24.7428 642.405 23.6436ZM654.179 81.5618C654.141 84.5626 653.767 87.3685 653.07 89.9089C652.382 92.418 651.388 94.6232 650.122 96.4646C648.873 98.2758 647.396 99.6836 645.731 100.649C644.117 101.587 642.37 102.076 640.544 102.114V102.122H640.318H640.281H640.056V102.114C638.227 102.076 636.482 101.587 634.867 100.649C633.201 99.683 631.722 98.2747 630.475 96.4646C629.208 94.6226 628.214 92.4169 627.525 89.9089C626.828 87.3679 626.456 84.5609 626.42 81.5636H626.416L626.42 81.0327C626.456 78.0326 626.828 75.2262 627.525 72.6852C628.214 70.1777 629.208 67.972 630.475 66.1295C631.722 64.32 633.201 62.9117 634.867 61.9444C636.482 61.0072 638.227 60.5185 640.054 60.4809V60.473H640.279H640.315H640.541V60.4809C642.37 60.5185 644.117 61.0072 645.731 61.9444C647.396 62.911 648.873 64.3188 650.122 66.1295C651.388 67.9715 652.382 70.1766 653.07 72.6852C653.769 75.2262 654.141 78.0326 654.179 81.0306V81.5618Z" fill="#5D0A0A"/>
<path d="M94.6591 134.751L140.338 134.76C140.091 133.385 139.81 130.946 139.657 126.666L139.656 70.0408H71.4117V86.2973H87.1402V87.9726C87.1402 89.8408 86.7189 91.673 85.9216 93.2718C84.7339 95.6536 83.2109 97.1682 80.6623 98.5003C75.0881 101.418 68.6593 101.642 63.0223 99.1136C57.3888 96.5901 53.2796 91.6384 51.7481 85.5294C49.7624 77.6047 49.4507 69.4998 50.823 61.4403C53.0682 48.2556 61.0313 41.7574 73.8483 42.6804C80.6581 43.1589 85.2955 46.8956 87.2573 53.4871C87.6181 54.701 87.9011 55.9258 88.1753 57.1108L88.2573 57.4654H140.012C138.438 38.0292 131.261 23.913 118.236 14.5203C117.72 14.4919 116.55 13.299 116.128 13.0159C114.126 11.673 112.032 10.463 109.896 9.34853C102.622 5.55324 94.7439 2.89859 86.6708 1.45047C64.27 -2.56816 38.9902 2.52008 21.3676 17.3244C6.72587 29.6242 0.898873 49.2945 0.143655 67.826C-0.165702 75.374 -0.0119546 82.9475 0.965249 90.4875C3.684 105.198 13.898 134.568 51.5993 138.195C52.9296 138.265 54.0605 138.369 55.6268 138.391C56.9187 138.41 58.2713 138.41 59.6884 138.386C64.0498 138.316 67.8936 137.789 71.4412 136.776C73.0227 136.361 74.5362 135.854 75.9953 135.275C77.6787 134.606 79.2769 133.829 80.7879 132.947C86.5889 129.676 91.2497 125.248 93.4072 120.513C93.9855 119.388 94.4261 118.235 94.6591 117.279V134.751Z" fill="#5D0A0A"/>
<path d="M571.78 53.3839C568.276 45.2647 562.682 38.1884 555.598 32.915C548.972 27.9705 540.81 25.3158 532.604 25.3471C519.123 25.3988 507.516 32.3586 500.836 44.0656C499.743 45.982 498.706 47.9785 497.926 50.0472V3.50293H454.614V135.083L497.949 135.061V115.823L500.96 121.404C507.05 132.685 517.693 138.406 532.776 138.406C540.953 138.406 549.046 135.728 555.562 130.866C562.673 125.576 568.277 118.477 571.775 110.329C575.76 101.293 577.727 91.7107 577.624 81.8457C577.732 71.967 575.766 62.3953 571.78 53.3839ZM529.029 82.1441C528.991 85.1449 528.619 87.9507 527.921 90.4911C527.231 93.0003 526.24 95.2054 524.971 97.0468C523.723 98.858 522.248 100.266 520.582 101.231C518.965 102.17 517.222 102.658 515.395 102.696V102.704H515.167H515.133H514.907V102.696C513.077 102.658 511.333 102.17 509.718 101.231C508.05 100.265 506.575 98.8569 505.326 97.0468C504.058 95.2048 503.065 92.9991 502.377 90.4911C501.681 87.9501 501.307 85.1431 501.27 82.1458H501.266L501.27 81.615C501.307 78.6147 501.681 75.8083 502.377 73.2673C503.065 70.7599 504.058 68.5542 505.326 66.7117C506.575 64.9021 508.05 63.4938 509.718 62.5265C511.333 61.5894 513.077 61.1006 514.904 61.0631V61.0551H515.13H515.166H515.392V61.0631C517.222 61.1006 518.965 61.5894 520.582 62.5265C522.248 63.4932 523.723 64.901 524.971 66.7117C526.24 68.5536 527.231 70.7587 527.921 73.2673C528.619 75.8083 528.991 78.6147 529.029 81.6127H529.032L529.029 82.1441Z" fill="#5D0A0A"/>
</svg>
