<?xml version="1.0" encoding="utf-8"?>
<!-- Generator: Adobe Illustrator 28.1.0, SVG Export Plug-In . SVG Version: 6.00 Build 0)  -->
<svg version="1.1" id="Layer_1" xmlns="http://www.w3.org/2000/svg" xmlns:xlink="http://www.w3.org/1999/xlink" x="0px" y="0px"
	 viewBox="0 0 2473.9 2267.7" style="enable-background:new 0 0 2473.9 2267.7;" xml:space="preserve">
<style type="text/css">
	.st0{fill:#5D0A0A;}
</style>
<g id="food_waste">
</g>
<g id="high_five">
</g>
<path class="st0" d="M1902.2,1528.2c-1-13.1-2-26.2-3.6-39.2c-1.7-13-4.3-25.9-6.6-38.8c-2.3-12.9-5.4-25.7-8.4-38.4
	c-3.2-15.5-10.3-28.9-18.9-38.8c-15.4-17.8-14.9-17.2-34.4-26.3c-14.9-6.8-30.1-13-45.5-18.5c-11.8-4.3-24-8.1-36.1-11.2
	c-12.2-3-25-3.5-37.4-5.2c-12.4-1.7-24.9-3.1-37.5-3.6c-12.5-0.5-25.2-2-37.8-1.1c-11.5,1.5-23.1,2.4-34.7,3.2
	c-11.6,0.7-23.1,1.9-34.8,1.9c-13.3-0.6-26.6,0.6-39.9,1.2c-13.3,0.6-26.4,2.5-39.6,4.3c-13.2,1.8-26,4.9-39,7.9
	c-8.6,1.9-18.3,1.3-26.8-0.9c-11.7-3.1-22.9-9.1-34.8-10.5c-12-1.4-24.3-1.4-36.4-1.2s-23.6,5.6-35.5,7.5
	c-11.9,1.9-24.7-0.1-36.2,3.4c-10.7,3.3-19.7,11.1-29.9,15.6c-10.2,4.5-20.3,8.9-29.9,14.6c-9.6,5.6-20.2,9.9-29.1,16.6
	c-8.9,6.7-14.9,16.7-23,24.4c-8,7.7-15.6,15.5-22.7,24.1c-2.6,3.7-8.2,5.1-12.6,6.1c-12.1,2.4-23.9,6.1-35.8,9.2
	c-12,3.1-23.9,6.1-35.7,9.8s-24.4,5.1-35.9,9.4c-11.6,4.3-22,11.4-33.4,16.3c-11.1,4.5-21.6,9.9-32.2,15.3
	c-10.6,5.4-22.6,8.5-32.7,14.9c-10.1,6.4-18.7,15-28.2,22.2c-10.6,8.2-19.5,18-28.8,27.6s-21.1,17.1-28.9,28
	c-6.6,8.8-10.7,19.6-14.1,29.7c-3.4,10.3-6.5,21.4-6.5,32.2c0,10.7,2.5,22,6,32.4c5.4,16.7,13.9,32.3,20.4,48.6
	c4.3,10.6,5.6,22.5,10.4,32.8c4.8,10.4,12.6,19.3,17.9,29.4c5.3,10.1,7.5,22,13.3,31.9c5.8,9.8,12.7,19.1,19,28.6
	c6.3,9.5,13,18.9,19.8,28.1c6.8,9.2,14.2,18,21.4,26.8c7.2,8.9,15,17.3,22.6,25.8c7.8,8.8,17.6,15.5,26.2,23.4
	c8.6,8,15.7,17.6,25,24.7c9.3,7.1,19.4,13.3,29.3,19.4c10,6.1,19.2,13.9,29.8,19c10.5,5.1,22,8.5,33,12.6c10.4,3.9,22,4.4,32.5,7.8
	c10.6,3.4,20.1,10.3,30.8,13.3c10.7,3,21.3,6.6,32.1,9.1c10.8,2.5,22.7,0.2,33.6,2.3c10.9,2.1,21.1,8.3,32.1,9.9
	c10.5,1.7,21.4,1.2,32,2.2c10.6,1,21.3,1,31.9,1.4s21.3,1.5,32,1.2c10.6-0.2,21.2-2.4,31.8-3.2c11.5-1.2,22.8-2.9,34.1-4.6
	c11.4-1.7,23.2-1.2,34.4-3.4c11.3-2.2,22.2-6.4,33.4-9.1c11.2-2.7,22.7-4.2,33.8-7.4s21-9.7,31.9-13.4c10.9-3.7,22.9-4.3,33.6-8.5
	c10.7-4.2,21.3-8.9,31.8-13.6c10.5-4.7,20-11.6,30.3-16.7c11.7-5.7,23-11.9,33.9-18.8c11-7,22.5-13.2,32.5-21.4
	c10.1-8.2,19.7-17,28.8-26.3c9.1-9.3,18.4-18.5,26.4-28.8c7.9-10.2,15.4-21.1,22.1-32.2c6-9.7,9.3-20.9,14.9-30.9
	c5.6-9.9,14.3-18.2,19.4-28.4c5.1-10.2,6.1-22.3,10.7-32.7c4.7-10.4,12.4-19.5,16.6-30.1c4.2-10.6,4.3-22.7,8-33.4
	c4-11.3,11.5-21.5,14.5-33.1c2.9-11.6,4.3-23.7,6.2-35.5c1.9-11.8,3.6-23.8,4.4-35.7c0.8-11.9-0.5-24-0.8-36
	C1902.4,1554.4,1903.2,1541.3,1902.2,1528.2z M1547.4,1373.8c9.7-5.1,19.2-10.8,29.3-14.7c10.2-3.9,21.8-3.2,32.4-5.9
	c10.5-2.7,20.8-6.2,31.6-7.8c10.8-1.5,21.5-1.2,32.4-1.5c12.1,0.2,24,0.4,36,2c12,1.6,24.7,0.2,36.4,3.2l-0.8,2.6
	c1.2,0.5,1.5,0.2,2.5,1c-1.6,4-4.3,2.8-7.2,3.3c-7.6,1.9-14.9,5.5-22.6,7.3c-11.4,3-22.6,6.5-33.5,10.9c-10.9,4.4-22.3,8-32.6,13.8
	c-10.2,5.8-20.4,12.2-29.8,19.2c-9.4,7-18,15.3-26.5,23.5c-8.4,8.1-15.5,17.7-22.9,26.9c-9,11.6-16.6,24.1-24.1,36.8
	c-7.5,12.6-13.5,25.9-19.3,39.4c-5.7,12-11.2,24.1-16.1,36.5c-4.9,12.4-12.9,23.7-16.9,36.5c-4,12.7-6.9,25.9-10,38.9
	c-1.2,9.5-6.1,20.1-15.5,22.1c-11.1,2.9-23.5,1.1-34.5,4.2c-11.1,3-21.1,10.2-32.2,13.2c-2.8,0.8-7.4-0.2-12,0.6
	c0.4-8.5,2.7-15.9,3.2-22.8c0.9-12.7-1.3-25.8,0.7-38.4c1.9-12.6,4.7-25.2,7.6-37.6c2.4-10.9,7.2-21.4,10.5-32.1
	c3.3-10.7,6.1-21.6,10.3-32.1c4.1-10.4,9-20.6,14-30.6c4.8-9.8,12.4-18,18.2-27.2c5.8-9.2,10-19.6,16.8-28.1s13.8-17,21.6-24.7
	c7.7-7.6,18.1-12.4,26.7-19.1C1529.8,1386.5,1537.7,1378.8,1547.4,1373.8z M1422,1361.5c14.3-4.6,29.5-6.4,44.1-9.3
	s29.5-5.9,44.5-7.1c3.7-0.1,7.6,0.4,11.3,0.8l-1.1,1.8c0.4,1.4,0.9,0.7,0.5,2.1c-2.4,1.7-4.3,2.7-6.7,4.3
	c-10.6,6.9-19.6,16.1-29.3,24.1c-9.7,8.1-19.1,16.5-27.8,25.6c-8.7,9.1-18.2,17.7-25.8,27.8c-7.6,10.1-14.8,20.6-21.2,31.5
	c-6.3,10.9-11.4,22.6-16.5,34.2c-5,11.5-8.3,23.8-12,35.9c-2.3,7.2-3.8,14.7-6,21.7c-2.5,8.3-6.6,11-14.1,7.5
	c-11.6-5.5-23.3-10.5-35.5-14.7c-12.2-4.1-23.6-11.2-36.2-14c-1.2-0.3-2.3,0.1-3.4-0.4c-6.1-2.2-10.2-2.8-8.6-9.2
	c2.8-11.3,11-21,15.3-31.8c4.3-10.8,5.4-23.2,11.1-33.4c6.2-11.4,14.1-22.1,22.2-32c8.2-10,19-17.5,28.9-25.7
	c9.9-8.2,18.7-18.6,30-24.7C1397.2,1370.4,1409.6,1365.4,1422,1361.5z M1221.6,1388c10.7-7.5,21.8-14.7,33.6-20.3
	c11.8-5.5,24.1-10.8,36.7-14.2c12.6-3.4,25.7-5.6,38.8-6.8c11.8-1.1,23.8,1.9,35.8,3.2c-0.5,0.4-0.9,0.7-1.5,1.1
	c-12.4,6.7-24.4,14.6-35.3,23.6s-19.5,20.4-28.4,31.3c-4.7,5.8-12.5,8.8-19.9,8c-13.9-0.7-27.8-2.7-41.7-2.6s-27.9,0.5-41.8,1.4
	c-2.1-0.1-3.4,1.7-5.4,1.2C1201.8,1404.7,1211,1395.5,1221.6,1388z M866.3,1651c-1.7,1.3-2.8,3.4-4.7,5.2c-5.5-8-7.7-16.8-7.6-26.1
	c0.1-9.6,3-18.5,9.1-26.6c6.7-9.3,12.4-19.4,20.2-27.7c7.8-8.4,16.4-16,25.2-23.3s19-12.6,28.7-18.7c9.6-6.1,19.6-11.4,30-16.2
	c9.9-4.7,19.4-9.8,29.5-14.1c10-4.3,19.7-9.5,29.8-13.5c10.2-3.9,20.2-8.3,30.5-11.9c10.3-3.5,20.5-7.5,31-10.7
	c10.4-3.1,21.1-5.9,31.6-8.6c11.5-3,23.9-1.9,35.6-4c11.7-2.1,23.2-4.4,35.1-5.6c11.8-1.2,23.5-6.3,35.3-6.6
	c11.9-0.3,23.7,4.8,35.6,5.4c9.9,0.5,13.3,1.4,10,11.1c-3.6,10.5-7.8,20.7-11.3,31.2c-3.6,10.5-9.4,20.1-13,30.6
	c-2.3,6.6-3.4,11.7-10,11.5c-10.9,0.1-21.5,0.2-32.3,0.9c-10.8,0.8-21.7-0.1-32.5,1.3c-10.7,1.4-21.2,4.2-31.9,6.3
	c-10.6,2.1-21.2,4.2-31.7,7c-10.5,2.8-21.6,3.4-31.9,6.8c-12.7,3.5-24.4,9.9-36.9,14c-12.5,4.1-24.6,9-36.9,13.7
	c-12.3,4.7-25.7,6.6-37.7,11.9c-11.6,5.1-22,12.6-33.1,18.6c-11.1,5.9-21.3,13.4-32,20.2C889.3,1639.8,876.4,1643.4,866.3,1651z
	 M888.7,1679.9l0-1c11.5-8.3,23.4-16.1,35.5-23.6c12.8-7.8,25.8-14.9,39.3-21.5c13.4-6.6,26.3-14.4,40.3-19.7
	c10.5-4.2,21.1-7.9,31.7-11.7c10.6-3.8,21.8-5.7,32.5-9.1c10.7-3.4,21.5-6.4,32.4-9.3c10.9-3,21.5-6.5,32.5-9
	c11-2.6,21.7-6.1,32.8-8.2c10.9-2,22-4.1,33-5c11.1-0.8,22.3-1.7,33.4-1.4c11.1,0.3,22.3,1.5,33.3,3c10.3,1.5,19.7,7.2,29.8,9.8
	c10.1,2.6,20,5,29.7,8.6c9.7,3.6,21,3.8,30.3,8.5c8.2,4,6.2,8.8,4.5,17.8c-2.2,11.3,0.3,23.3-0.9,34.8c-1.2,11.4-2.6,22.8-2.8,34.3
	c-0.1,2.4-2.8,4.6-3.4,7c-0.1,0.8,0.4,4.2-0.7,6c-3.1-1.4-7.6-3.6-10.6-5.4c-10.7-7.4-20.8-15.6-32.5-21.4
	c-11.7-5.8-24-9.8-36.4-13.8c-12.8-3.9-25.6-7.2-38.7-9.1c-13.2-1.9-26.4-5.5-39.7-5.4c-13.3,0.1-26.4,4-39.6,6.1
	c-13.4,2-26.4,5.1-39.5,8.3c-13.1,3.2-27,3.8-39.7,8.1s-24.6,11.3-36.9,16.7c-12.3,5.4-23.7,12.6-35.5,19.1
	c-12,7.1-26.1,11.4-37.3,19.8c-2.7,2.4-4.5,4.3-8,3.7c-11.6-2.4-22.4-6.8-33.5-10.7s-21.9-8-32.4-13.4c-1.2-0.6-3.1,2.7-4.3,1.9
	C880.4,1690.2,881.9,1684.8,888.7,1679.9z M1309.3,1698.4l-1.2,0.8c-7.4,1.2-13,1.8-18.6,2.8c-10.8,1.6-21.7,3.1-32.5,4.7
	c-10.8,1.6-21.4,5.3-32.2,6.9c-10.8,1.6-21.7,3-32.6,4.6c-10.8,1.6-21.9,1.5-32.8,3c-10.9,1.6-21.7,2.9-32.6,4.4
	c-11.5,1.6-22.9,3.4-34.5,4.1c-11.6,0.7-23.2,2.1-34.8,1.8c-11.6-0.3-23.3-0.3-34.9-1.5c-2.9-0.4-6.5-0.5-11.4-1.1
	c1.6-2,3.8-6.3,5.8-7.9c10.5-6.3,23.1-8.8,34.1-14c11.1-5.3,22-10.5,33.5-14.6c11.5-4.1,22-11.8,33.9-14.8c11.9-3,24.8-0.5,37-2.3
	c12.1-1.8,23.9-7.1,36.1-7.7c12.6-0.3,25.3,1.2,37.7,3c12.4,1.9,24.1,7.1,35.9,11c11.9,3.9,24.9,5.5,36,11.4
	C1303.5,1694.2,1305.7,1696.1,1309.3,1698.4z M1773.1,1661.9c-1.5,13.1-2.9,26.1-5.7,39.1c-2.3,11.5-1.1,23.8-3.8,35.2
	c-2.7,11.4-9,21.9-12.2,33.2s-3.6,23.4-7.1,34.6c-3.5,11.2-11,21.1-14.9,32.1c-4.1,11.9-8,23.7-13.5,35s-11.3,22.3-18.1,32.9
	c-6.4,10-13.1,19.5-21.2,28.1c-8.1,8.6-16.7,16.6-26.4,23.4c-9.6,6.8-18.8,14.8-29.6,19.7c-12,5.6-25.3,8.3-37.6,13.3
	c-12.3,5-24.4,10.2-36.9,14.6c-12.5,4.4-25.7,6.3-38.4,10.2c-12.7,3.8-25,8.7-37.8,12c-11.2,2.8-21.9,8.3-33.2,10.1
	c-11.4,1.8-23.3-0.5-34.7,0.4c-11.5,0.9-22.8,0.6-34.4,0.6c-11.5,0-23.2,4.3-34.7,3.4c-11.5-0.9-22.4-6.6-33.8-8.5
	c-11.5-1.9-23.2-2.1-34.6-4.4c-11.4-2.3-23-4-34.3-6.6c-11.3-2.6-22.4-6.4-33.6-9.4c-11.2-3-22.9-4.7-34-8
	c-11.1-3.4-22.3-6.8-33.3-10.5c-10.8-3.8-20.5-10.4-30.9-15.2c-10.4-4.8-21.3-8.7-31.1-14.6c-9.8-5.9-18.4-13.6-27.6-20.4
	c-9.2-6.9-20.1-11.8-28.5-19.5c-8.4-7.8-13.9-18.5-21.5-27.1c-8.3-9.1-16.5-18.2-24.2-27.8c-7.7-9.6-17-18.1-24.1-28.1
	c-7.1-10-13.9-20.4-20.4-30.8c-6.5-10.4-11.2-22-17.1-32.8c-5.9-10.8-11.4-21.8-16.7-32.9l0.3-0.1c-1.3-2.7-2-5.5-3-8.4
	c-0.2-0.8,0.1-0.4,0.2-1.2c3-2.8,4.9-2.4,7.6-1.4c12.3,4.7,24.6,9.1,37.2,12.8c12.6,3.7,25,8.6,37.8,11.3
	c12.8,2.7,25.9,5.1,38.9,6.8c11.4,1.3,22.9,1.4,34.3,1.8c11.4,0.4,22.8-0.8,34.2-1.3c11.4-0.5,22.7-2,34-3.4
	c13.2-1.5,26.4-3.8,39.6-5.4c13.2-1.7,26.4-3.2,39.7-4.9c13.2-1.8,26.9,0.2,40.1-1.6c13.2-1.8,26.3-4.2,39.5-6
	c10.9-1.3,21.3-7,32.2-8.6c10.9-1.6,22.5,1.6,33.4-0.3s20.9-8,31.7-10.1c10.8-2.1,21.7-3.7,32.4-6.1c12.5-3,25.6-3.9,38-7.3
	c12.4-3.5,23.7-10.7,35.9-14.6c11.6-3.6,23.2-7.1,34.8-10.9c11.5-3.9,23.6-6,35.1-10.1c11.4-4.1,22.5-9.3,33.8-13.6
	c11.3-4.4,22.8-8.6,34-13.2c11.2-4.6,23.5-6.9,34.6-11.8c11.1-4.9,21.1-12.4,32.1-17.5c10.6-5,20.8-10.7,31.2-16.1
	c10.4-5.5,22.2-8.3,32.3-14.3c10.1-5.9,18.9-14,28.8-20.4c1.5-1,4.6-2.4,7.3-3.8c0.9,6.7-2.2,13.8-1.6,19.7
	c1.2,13.2,3.1,26.2,3,39.4C1776.6,1635.8,1774.6,1648.7,1773.1,1661.9z M1815.4,1487.8c-8.2,8.4-15.3,17.9-24.2,25.6
	c-8.9,7.7-18.3,14.8-27.7,21.8c-9.5,6.9-20.2,12-30.2,18.2c-10,6.1-20.3,11.6-30.7,16.9c-10.5,5.3-20.8,10.8-31.7,15.2
	c-1.4,0.5-2.7,2-4.1,2.5c-1.1-0.5-2.9-1.4-2.5-2.5c6.1-10.9,12.6-22.1,20.1-32.1c7.5-10,16-19.5,24.8-28.4
	c8.8-8.9,20.6-14.4,30.5-22.1c10.1-7.4,20-14.5,30.9-20.5c10.9-6.1,20.3-15.4,31.8-20.1c11.5-4.7,24.6-4.1,36.6-7.4
	c0.3,0,0.5-0.2,0.7-0.4c-0.6,2.1-1.6,3.9-2.7,5.9C1830.4,1469.9,1823.2,1478.9,1815.4,1487.8z M1840.4,1453.5c0.5-0.7,0.9-1.4,1.4-1
	L1840.4,1453.5z M1835.1,1413.8c-1.7,1.1-3.2,1.7-5.2,2.2c-10.1,3.2-19.6,8.3-29.7,11.7c-10.7,3.5-21.1,7.4-31.2,12.1
	c-10.2,4.7-20.9,8.5-30.4,14.4c-9.5,5.9-18.9,12.2-27.7,19.1c-8.8,6.9-16.8,15-24.7,22.9c-7.9,7.9-14.5,17-21.5,25.8
	c-6.9,8.7-12.8,18.2-18.7,27.7c-5.9,9.4-10.6,19.4-15.4,29.6c-3.6,7-7.2,14-10.6,20.8c-3.1,7-10.9,9.8-18,12.8
	c-12.2,4.9-24.2,10.4-36.4,15.3c-12.2,4.9-22.9,13.8-35.2,18.6c-2.8,0.8-4.3-1.7-7.1-1.4c1.2-5.4-2.1-9.2-1-13.1
	c3.3-12.3,7.7-24.4,11.9-36.4c4.2-12,11.2-22.9,16.3-34.6c5.1-11.6,7.5-24.7,13.5-35.9c6-11.2,12.8-22.2,19.7-32.9
	c6-8.7,14.2-15.9,21.2-23.8c7-7.9,14-16,21.9-22.9c8-6.9,16.7-13.1,25.5-18.9c8.8-5.8,19.2-8.7,28.7-13.4
	c12.1-6.1,23.5-13.9,36.3-18.2c12.8-4.3,26-8.3,39.3-10.8c13.3-2.4,27.1-0.7,40.7-1.2c8.7-0.5,17.5-2.8,26.3-2.6
	c6.9,0,14.7,3.2,18,9.2l-2.3,1.7C1844.8,1399.4,1842.9,1408.5,1835.1,1413.8z"/>
<path class="st0" d="M843.3,844.3c1.2,11.1,0.5,22.4,2.7,33.3c2.2,10.9,7.9,20.9,11,31.5c3.1,10.7,2.5,22.6,6.6,32.9
	c4,10.3,9.7,20.1,14.6,30.1c4.9,9.9,10,19.9,15.8,29.4c6.4,10.4,14.6,19.6,21.5,29.6c6.9,10,15.1,19.1,22.6,28.6
	c7.5,9.6,13.7,20.2,21.8,29.3c8,9.2,15.5,18.9,24,27.6c8.5,8.7,18.4,16,27.4,24.2c9,8.2,19.2,14.9,28.7,22.6
	c9.4,7.9,19.1,15.2,29.3,22c10.2,6.9,18.8,16.4,29.7,22.2c10.9,5.8,22.6,10,34,14.6c11.4,4.6,23,8.9,34.8,12.3
	c11.8,3.4,23.7,7.2,35.8,9.4c12.1,2.1,24.7,0.6,37,1.5c12.3,0.9,24.6,1,36.9,1.4c12.3,0.3,24.6,2.3,37,2.1s24.5-3.2,36.8-4
	c12.3-0.8,24.8,0.7,37.1-0.7c11.8-1.2,23.3-4.6,34.9-6.9c11.7-2.3,24-2.1,35.3-5.5c11.4-3.3,21.7-9.9,32.7-14.3
	c11-4.4,22.7-7.3,33.3-12.7c10.6-5.4,20.4-12.2,30.4-18.6c10-6.3,19.3-13.8,28.7-21c9.4-7.2,19.3-13.9,28-22
	c8.6-8.1,17.7-15.9,25.6-24.8c7.6-8.4,13.3-18.3,20.4-27c7.1-8.8,13-18.4,19.6-27.5c6.6-9.1,14.4-17.4,20.5-26.8
	c6.1-9.5,9.8-20.4,15.3-30.1c5.6-9.8,11.2-19.4,16.2-29.5c5-10.1,11.4-19.5,15.9-29.8c4.7-10.3,8.8-20.9,12.5-31.6
	c3.7-10.7,8.9-21.1,11.5-32.1c2.6-11,2.6-22.6,4.1-33.9c1.6-11.2,4-22.4,4.6-33.7c0.5-11.3,0-22.7-0.6-34
	c-0.6-12.2-2.3-24.4-3.7-36.5c-1.4-12.2-4.4-24-6.5-36.1c-2.1-12.1-2.8-24.4-5.6-36.3c-2.8-11.9-6.6-23.6-10-35.3
	c-3.5-11.7-8.9-22.7-13.1-34.3c-3.7-10.5-4.5-22.1-9.1-32.2c-4.6-10.1-12.1-18.8-17.6-28.4c-5.5-9.6-9.5-20.2-15.9-29.3
	c-6.3-9.1-13.6-17.6-20.7-26.1c-7.1-8.5-16.5-14.9-24.3-22.7c-8.7-8.7-15.4-19.5-24.6-27.6c-9.2-8.1-19.6-15-29.3-22.5
	c-9.7-7.5-19.6-14.8-29.8-21.8c-10.2-6.9-21.2-12.4-31.8-18.7c-10.6-6.3-20.6-13.5-31.6-19.1c-9.8-5-20.5-7.9-30.7-11.9
	c-10.2-4.1-20.4-7.8-30.9-11c-10.5-3.2-20.9-6.7-31.6-9c-10.8-2.2-21.6-3.5-32.5-4.8c-11.2-1-22.3-3.1-33.5-3.6
	c-11.2-0.4-22.4,1.7-33.6,1.9c-11.2,0.2-22.4-0.9-33.6,0s-22.7-0.6-33.8,0.8c-11.1,1.4-21.7,6.7-32.7,8.8c-11,2-21.9,4.5-32.8,7.1
	l0-0.9c-10.6,2.5-20.6,6.6-30.8,10c-10.3,3.4-20.2,7.4-30.2,11.6s-20.3,7.5-29.8,12.6c-9.6,5.1-18.4,11.3-27.5,17.2
	c-10.9,7-21.9,13.6-32.2,21.4c-10.3,7.8-20.9,15.2-30.6,23.7c-9.7,8.5-18.4,18.1-27.5,27.3c-9.1,9.2-19.8,16.9-28.1,26.8
	c-8.3,9.8-16.5,20-24.2,30.5c-6.7,9.1-10,20.5-15.7,30.2c-5.8,9.7-12.6,18.8-17.5,28.9c-4.9,10.2-7.8,21.1-11.7,31.7
	c-3.9,10.6-8.6,20.9-11.5,31.8c-3.1,11.4-4.1,23.1-6.5,34.6c-2.4,11.5-4.9,22.9-6.6,34.6c-1.7,11.6-3.7,23.2-4.7,34.9
	c-1,11.7-0.6,23.4-0.9,35.2c-0.4,11.7-2.3,23.4-2,35.2C839.9,822.3,842.1,833.3,843.3,844.3z M878.9,766.7
	c0.9-13.3,3.1-26.5,4.8-39.7l0.1-0.1c1.2-11,1.5-22.2,3.5-33.1c2-10.9,4.1-21.9,6.9-32.6s7.3-21,10.8-31.5
	c3.5-10.5,6.6-21.3,10.8-31.5c4.8-10.7,11-21,16.8-31.2c5.8-10.2,12.8-19.7,19.5-29.4c6.7-9.7,13-19.7,20.6-28.7
	c7.5-9,17.4-15.8,25.8-24.1c8.3-8.3,17-15.9,26.1-23.5c8.8-7.4,15.6-17.3,24.9-24c9.3-6.7,20-11.5,29.8-17.4
	c9.9-5.9,19.2-12.8,29.5-17.8c10.3-5.1,21.4-8.4,32.1-12.6c10.7-4.2,21-9.6,32-12.9c11-3.3,22.3-5.8,33.5-8.2
	c11.2-2.4,22.7-3.8,34.1-5.3c12.5-2,24.9-4.8,37.5-6c12.6-1.2,25.3,0,38-0.3c12.6-0.3,25.3-1.7,37.9-1.2c11.4,0.6,22.4,4.2,33.6,5.9
	c11.2,1.7,23,0.9,34,3.7c11,2.9,20.5,10.4,31.1,14.4c10.6,3.9,21.4,7.2,31.6,12.2c10.1,5,19.8,10.7,29.5,16.7
	c9.6,5.7,19.9,10.1,29,16.5c9.1,6.3,18.8,12.1,27.5,19c8.7,7,15.9,15.7,24,23.3s15.1,16.2,22.7,24.3c7.6,8.1,16.1,15.4,23.1,24.1
	c7,8.6,15,16.7,21.4,25.8c6.2,9.8,12.1,20,17.6,30.1c5.5,10.2,7.3,22.2,12,32.8c4.8,10.6,10.2,20.7,14.2,31.6
	c4,10.9,7.4,21.9,10.6,33s5,22.5,7.5,33.8c2.4,11.3,7.5,22.1,9.1,33.6c1.6,11.4,3.4,23,4.3,34.5c0.8,11.5-0.7,23.2-0.6,34.8
	c-0.2,10.5,1.5,21.3,0.2,31.8c-1.3,10.5-5.6,20.5-7.9,30.8c-2.3,10.3-3.4,20.9-6.7,30.9c-3.3,10-9.9,18.7-14.2,28.3
	c-4.8,11.2-7.4,23.4-12.9,34.3c-5.5,10.9-13.3,20.5-19.5,30.9c-6.2,10.5-11.8,21.3-18.7,31.3s-13.4,20.3-20.9,29.9
	c-7.5,9.6-16.3,18-24.5,27.1c-8.1,9.1-17.1,17.2-25.8,25.7c-8.3,8.2-15.5,17.5-24.5,24.7c-9.1,7.3-17.9,15.1-27.6,21.4
	c-9.8,6.3-20.8,10.6-31.1,15.8s-20.1,12.3-30.9,16.4c-10.8,4.1-22.2,7.4-33.5,10.4c-11.2,3-23,3.7-34.5,5.5
	c-11.3,1.8-22.5,3.4-33.9,4.6c-11.3,1.2-22.8,0-34.2,0.6c-11.4,0.6-22.7,3.1-34.1,3c-11.4-0.1-22.7-1.8-34.1-2.5
	c-11.4-0.7-22.7-1.2-34-2.5c-12.1-1.3-24.3-2.6-36.1-5.3c-11.9-2.7-24.1-4.7-35.6-8.6c-11.5-4-22.2-10.2-33.3-15.4
	c-11-5.2-22-10.4-32.4-16.8c-10.3-6.4-21.4-12-31.1-19.5c-9.8-7.4-17-17.9-26.2-26c-9.3-8-20-14.4-28.7-23
	c-8.7-8.6-15.4-19.1-23.5-28.3c-8.1-9.2-16.2-18.3-23.7-28c-7.4-9.7-16.6-18.2-23.4-28.4c-6.8-10.2-10.5-22.3-16.6-32.9
	c-5.6-10.1-11.9-19.8-16.4-30.3c-4.5-10.6-8.4-21.4-11.8-32.4c-3.4-11-7.5-21.9-9.7-33.2c-2.2-11.3-2.4-23-3.4-34.4
	c-1-11.4-3.2-23-3-34.5C877.5,793.4,878,780,878.9,766.7z"/>
<path class="st0" d="M851.7,1460.8c12.6,4.1,24.6,2.6,35.5-3c11-5.6,21.3-13.8,25.4-26.4c1.7-5.3,1.3-11.2,1.1-16.8l-0.6-0.2
	c-1.4-16.2-9-31-21.9-41c-9.5-8.5-18-18.1-27.7-26.4c-8.8-7.5-18.7-13.8-27.4-21.5c-8.7-7.7-18.3-14.3-26.9-22.2
	c-8.6-7.8-16.8-16-25.2-24c-8.4-8-15.6-17.2-23.9-25.3c-8.3-8.1-16.9-15.9-25.1-24.1c-8.2-8.2-16-16.8-24-25.1
	c-8-8.3-15.8-17-23.7-25.4c-7.9-8.5-15.1-17.6-22.9-26.2c-8.8-9.7-19.8-17.5-28.9-27c-9.1-9.5-16.6-20.6-25.8-29.9
	c-9.3-9.3-19-18.3-28.5-27.4c-9.5-9.1-20.6-16.5-30.3-25.4c-9.7-8.9-18.5-18.8-28.4-27.4c-8.6-7.5-16.6-15.8-25.2-23.3
	c-8.6-7.5-17-15.3-25.5-22.9c-8.5-7.6-18.2-13.9-26.7-21.6c-8.5-7.7-17.8-14.5-26.1-22.3c-8.3-7.8-15.4-17-23.6-25
	c-8.2-7.9-17.3-15-25.4-23.1c-8.1-8.1-15.2-17.1-23.1-25.4c-6.1-6.3-12.9-12.7-20.8-16.4c-10.1-5-21.7-6-32.2-5.2
	c-10.8,0.8-21.1,5.1-30.1,11.2c-8.7,5.9-17.2,13.4-22.1,23.5c-3.1,6.3-5.3,13.4-6.1,20.3c-1.3,10.2,1.8,20.3,5,29.9
	c3.2,9.5,8,18.2,15.3,25.6c4.1,4.4,7.2,10,11.7,14.1c7.8,7.2,17.6,12.2,25.5,19.2c7.9,7.1,15.5,14.5,23.3,21.7
	c8.6,8.1,16.6,16.7,25.2,24.7c8.6,8,16,17.4,24.7,25.3c8.7,7.9,17.6,15.7,26.4,23.5c8.8,7.9,18.6,14.6,27.4,22.4
	c8.8,7.8,17.6,15.7,26.5,23.4c8.9,7.7,18.8,14.3,27.7,22c8.9,7.7,16.9,16.5,25.9,24.1c9.5,8,19.1,15.9,28.5,24
	c9.4,8.1,18,17.2,27.3,25.4c9.3,8.2,18.6,16.5,27.8,24.8c9.2,8.4,18.6,16.4,27.7,24.9c8.8,8.2,17.6,16.5,26.4,24.7
	c8.8,8.2,18.3,15.7,27.2,23.8c8.9,8.1,18.5,15.4,27.5,23.4c9,8,17.9,16.1,27,24c9.1,7.9,17.6,16.4,26.8,24.3
	c9.2,7.8,17.8,16.2,27.1,23.9c9.3,7.7,18.1,16,27.5,23.5c9.4,7.5,19.2,14.6,28.7,22C836.1,1455.7,844.1,1457.8,851.7,1460.8z
	 M801.2,1381.8c-8.8-7.1-18.2-13.4-26.9-20.6c-8.7-7.2-17.3-14.6-25.8-22c-9.6-8.3-18.5-17.3-27.9-25.7
	c-9.4-8.4-18.2-17.6-27.5-26.1c-9.3-8.6-18-17.8-27.2-26.4c-9.2-8.7-18.8-17-27.9-25.7l-1.2,1.2c-8.2-7.8-16-15.8-24.3-23.5
	c-8.2-7.7-15.2-16.7-23.5-24.3c-8.3-7.6-17.8-13.9-26.2-21.4c-8.4-7.5-17.8-13.9-26.2-21.3c-8.5-7.4-16.7-15.1-25.3-22.4
	c-8.6-7.3-16.1-15.8-24.8-23c-9-7.4-18.3-14.4-27.2-21.9c-8.9-7.5-17.5-15.4-26.3-23c-8.8-7.6-17.4-15.5-26.1-23.2
	c-8.7-7.7-16.8-16.1-25.5-23.8c-8.7-7.8-19.2-13.5-27.8-21.3c-8.6-7.8-15.6-17.4-24.2-25.3c-8.6-7.9-17.4-15.5-25.9-23.4
	c-6.9-6.5-15.4-11-22.1-17.7c-5.8-5.5-8.2-13.9-8.9-21.8c-1.5-15.6,9.8-28.1,25.4-29.6c2.5-0.2,4.6,0.1,7.1,0.5
	c7.4,1.3,14.5,3.3,19.5,8.9c8.9,8.8,18.7,16.7,27.6,25.6c8.9,8.8,16.5,19,25.4,27.7c9,8.8,18.8,16.5,28,25.1
	c8.6,8,16.3,16.9,25,24.9c8.7,7.9,16.4,16.8,25.1,24.7c8.7,7.9,18.2,14.9,26.9,22.8c8.7,7.8,18,15.1,26.8,22.9c9,8,17,17,25.8,25.1
	c8.8,8.2,17.5,16.4,26.1,24.8c8.7,8.3,18.8,15.2,27.3,23.7c8.5,8.5,16.7,17.3,25,26c8.3,8.7,15.1,18.7,23.2,27.6
	c8.6,9.4,19.2,16.9,27.9,26.2c8.7,9.3,17.2,18.7,26.1,27.8c8.9,9.1,17.2,18.8,26.2,27.8c9,9,16.7,19.3,25.9,28.2
	c9.2,8.8,18.6,17.5,27.9,26.1c9.3,8.7,19.7,16.2,29.1,24.7c9.5,8.5,18.9,17.1,28.5,25.5c9.6,8.4,20.2,15.5,29.9,23.7
	c3.9,3.3,6.8,7.8,10.5,11.5c2.7,2.5,5.3,4.9,7.5,7.8c4.4,6.2,3.7,10,0.1,14.2c-4.1,4.7-9.6,6.1-15.3,3.6c-2.2-1.1-4.3-1.9-6.1-3.5
	c-8.8-7.1-17.6-14.1-26.4-21.2C819.4,1395.2,810,1388.8,801.2,1381.8z"/>
<path class="st0" d="M520.4,788.8c6.6,9.5,14.3,18.1,20.9,27.5c6.6,9.4,14.3,18.1,20.9,27.5c6.6,9.4,12.2,19.6,18.8,29
	c6.8,9.7,14.1,19,20.9,28.7c6.8,9.7,12.3,20.2,19.1,29.9c6.8,9.7,13.5,19.4,20.3,29.1c6.8,9.7,14.4,18.7,21.2,28.4
	c6.8,9.7,13.6,19.3,20.4,29s12.6,20,19.4,29.7c6.8,9.7,13,19.7,19.8,29.4c6.7,9.7,15.6,18,22.2,27.7c7.3,10.7,13.3,22.4,20.5,33.2
	c7.3,10.8,15.4,20.9,22.7,31.7c7.2,10.8,12.6,22.8,19.9,33.6c7.3,10.8,14.5,21.5,21.9,32.2c7.4,10.7,16.8,19.9,24.3,30.5
	c7.5,10.6,15.3,21,23,31.4c6.5,8.9,11.9,18.7,18.4,27.7c6.5,9,11.6,18.9,18,27.9c6.5,9,14.9,16.5,21.4,25.5c6.5,9,11.5,19,18,27.9
	c6.6,9.2,16.7,15,27.2,19.3c10.6,5.3,22,6.8,32.4,3.4c10.4-3.4,19.1-11.1,24.5-21.7c3.2-6.4,7-13.2,6.8-20.3
	c0.2-11.6-4.7-23.1-11.1-32.8c-6.7-11.2-14.2-21.8-21-33c-6.7-11.2-13-22.6-19.7-33.8c-6.7-11.2-13.6-22.3-20.1-33.5
	c-6.2-10.7-11.9-21.8-18.2-32.5c-6.3-10.7-13.2-21-19.6-31.7c-6.4-10.7-13.7-20.8-20.2-31.3c-6.5-10.6-11.8-21.9-18.5-32.4
	c-6.7-10.4-12.5-21.5-19.5-31.8c-6-8.8-11.5-18-17.6-26.8c-6-8.8-13.7-16.5-19.8-25.3c-6.1-8.8-12.2-17.6-18.2-26.4
	c-6.1-8.8-10.8-18.5-16.8-27.3c-7-10.2-16.1-19-22.9-29.4c-6.8-10.4-11-22.4-17.5-32.9c-6.5-10.5-14.6-20.1-20.9-30.7
	c-6.3-10.6-12.4-21.4-18.6-32.1c-6.2-10.7-12.7-21.2-18.8-32c-6.1-10.8-10.6-22.5-16.6-33.3c-5.5-9.9-12.3-19-18-28.8
	c-5.7-9.8-12.9-18.6-18.7-28.4c-5.8-9.7-11.2-19.7-17-29.4c-5.2-9.1-12.2-15.8-20.7-21.3c-8.5-5.5-17.4-10.9-27.8-11.8
	c-13.3-1.2-26.6,1.6-38,7.5c-11.4,5.9-21.1,15.3-27.8,26.9l2,1.2c-7.9,11.3-12.8,23.5-12.6,36.7C509.2,764,512.1,777.7,520.4,788.8z
	 M546.3,743.5c2-13.9,10.4-26.2,24-29.6c13.1-3.5,26.2,3.8,32.6,15.8c6.5,10.6,14.6,20.3,20.9,30.9c6.4,10.7,11.8,21.9,18,32.6
	c6.2,10.7,12.8,21.2,19,31.9c6.2,10.7,10.5,22.5,16.7,33.2c6.2,10.7,13.8,20.6,20.1,31.2c6.3,10.6,13.5,20.8,19.9,31.3
	c6.4,10.6,12.6,21.3,19.2,31.7c6.6,10.5,13.6,20.7,20.4,31c7,10.5,13.4,21.4,20.4,31.8c7,10.5,14.6,20.5,21.6,31
	c7,10.5,14.9,20.4,21.8,30.9c7,10.5,12.6,21.9,19.5,32.5c6.9,10.6,12.6,21.9,19.3,32.5c6.2,9.7,11.7,19.7,17.8,29.5
	c6.1,9.7,13.7,18.5,19.7,28.3c6,9.8,12,19.6,17.9,29.4c5.9,9.8,10.4,20.5,16.3,30.3c5.9,9.8,14.1,18.3,20.1,28.1
	c5.9,9.8,9.4,21.1,15.4,30.9c5.2,8.5,12.1,16,17.4,24.5c5.3,8.5,10.5,17,15.7,25.5c1.8,2.8,3.7,5.6,4.8,8.7c2,4.6-0.7,9.3-4.7,12.4
	c-3.9,3.3-8.7,4.5-12.8,1.6c-3.8-2.8-8.6-5.4-11.3-9.3l0.2,0.1c-8-11.4-15-23.5-23-34.9c-8-11.4-14.8-23.7-22.8-35.1
	c-8-11.4-17.1-22-25.1-33.5c-7.1-10.1-15.2-19.5-22.3-29.6s-13.1-21-20.2-31.1c-7-10.1-14.6-19.9-21.7-30
	c-7-10.1-12.8-21.1-19.9-31.3c-7-10.1-14-20.3-21-30.5s-14.9-19.7-22-29.8c-7-10.1-14.2-20.2-21.2-30.4c-7-10.1-13.2-20.9-20.2-31
	c-7-10.1-13.6-20.6-20.7-30.7c-7-10.1-16.2-18.8-23.3-28.9c-7-10.1-12.7-21.2-19.7-31.4c-7.4-10.7-15.7-20.8-23.2-31.5
	c-7.4-10.7-13-22.7-20.3-33.5c-7.4-10.7-14.7-21.5-22.1-32.3c-7.4-10.7-16.8-20.1-24.1-30.8c-7.3-10.8-15-21.3-22.3-32.1
	c-4.7-6.9-8.1-15.1-12.7-22.3C545.3,756.1,545.6,749.9,546.3,743.5z"/>
<path class="st0" d="M1919,301.5c-1.7-13.2-5.8-26.2-11-38.8c-3.9-10.6-9.7-20-16-28.8c-6.5-9-14-17.1-22.5-24
	c-8.6-6.9-17.7-13.2-27.8-17.7c-10-4.4-20.8-7.5-31.8-9.1c-10.7-1.6-21.9-2-33.1-0.7l0.2,0c-11.5,1-22.7,3-33.2,6.5
	c-10.8,3.7-20.9,9.1-30.3,15.1c-9.5,6.1-17.8,13.9-25.5,22.1c-7.7,8.2-14.4,17.3-20,27.1c-5.5,9.7-10.5,19.9-13.5,30.9
	c-3,10.7-4.2,21.9-4.5,33.5c-0.3,11.4,0.7,22.5,3.1,33.2c2.5,11,6.3,21.5,11.2,31.4c5,10,11.5,19.1,18.7,27.6
	c7.2,8.5,14.9,16.7,24,23.3c9,6.5,18.7,12.3,29.2,16.5c10.2,4.1,21.3,6.3,32.6,7.9c9.4,0.3,18.8,1.6,27.9,1
	c12.3,0,24.2-2.6,35.5-6.1c11.6-3.6,23-8.1,32.9-14.9c9.9-6.9,18.1-16,25.5-25.6c7.3-9.4,13.3-19.8,17.6-31.4
	c5.2-12.6,9.2-25.5,11-38.7C1920.6,328.4,1920.7,314.8,1919,301.5z M1884,334.9c-1.3,12.2-4.8,23.7-10.2,33.9
	c-5.6,10.6-12.9,20.3-21.9,28c-9,7.7-19.8,13-31.2,16.8c-10.9,3.8-22.7,5.1-34.9,4.5c-12.1,0.2-24-1-35-4.9
	c-11.2-4-21.4-10.2-30.5-17.9c-9-7.5-17.2-16.3-23.2-26.8c-6.9-10.7-10.3-22.7-12.2-34.7c-2-12.2-2.3-24.8,0.8-36.8
	c3.1-11.8,8.7-23,16.6-33l0.5,0.1c7-10.3,15.9-18.7,25.8-25.7c10-7.1,20.9-12.7,32.7-16c11.7-3.2,23.9-5,36.3-3.9
	c14.5,0.9,28.6,5.4,40.6,12.8c12.1,7.4,21.9,18.2,29.3,30.8c6.9,10.8,12.3,22.5,15,34.8C1885.2,309.3,1885.6,322.2,1884,334.9z"/>
<path class="st0" d="M1095.7,990.1c0.7,1.7,2.9,2.7,3.8,4.3c5.5,10.6,12.8,19.5,22.7,25.5c9.9,5.9,21.2,8.7,33.2,8.6
	c14.3-0.2,28.4-2.5,41.5-8.3c8.7-3.6,16.9-8.1,25.1-12.6c8.2-4.5,17-8.1,24.7-13.5c9.6-6.6,18-14.8,27.4-21.7
	c9.4-6.9,18.9-13.6,28-20.8c9.2-7.2,18.4-14.3,27.3-21.8c8.9-7.5,18.3-14.5,26.9-22.3c8.7-7.8,16.6-16.3,25-24.4
	c8.4-8,17-15.9,25.1-24.2c8.2-8.3,15.6-17.3,23.5-25.8c8.6-9.4,17.5-18.6,25.2-28.6c7.8-10.1,14.1-21.2,21-31.9
	c6.9-10.7,13.2-21.7,19.1-32.9c6.1-11,12.6-21.7,17.4-33.2c4.8-11.5,8.5-23.5,12-35.5c3.5-12,6.9-24,9-36.4
	c3.1-15.8,1.8-32-2.2-47.6c-1.6-5.4-2.7-11-5.3-15.9c-0.7-1.2-1-2.6-1.7-3.7c-7.9-12.9-21.4-21.4-36.2-24.4
	c-8.6-1.7-17.5-3.3-26.2-2.4l0.5,1.6c-9.8,1-19.8,1.1-29.2,3.8s-18.7,6.4-27.5,10.9c-3.8,1.9-3.4,2.6-7.2,4.5
	c-11,5.6-22.1,11.2-32.5,17.8c-10.4,6.6-19.9,14.6-29.7,22.1c-9.8,7.5-19,15.7-28,24.1c-8.7,7.9-18,15.1-26.5,23.3
	c-8.4,8.2-17,16.3-25.1,24.8c-8.1,8.5-16.1,17.2-23.8,26c-7.8,8.8-13.8,19.1-21.2,28.2c-7.4,9.1-16.1,17.3-23.1,26.7
	c-7,9.4-13.6,19.2-20.3,28.8c-6.7,9.7-13.6,19.2-19.9,29.1c-6.3,9.9-10.6,21-16.5,31.2c-5.9,10.2-12.7,19.8-18.2,30.2
	c-4.9,9.1-9.6,18.4-13.2,28c-3.6,9.6-6.7,19.6-9,29.6c-3.8,15.7-3.2,32.3,0.3,48C1093.1,982.8,1094.3,986.6,1095.7,990.1z
	 M1132.3,951.7c1.4-9.8,3.4-19.3,6.5-28.6s7.6-18,12.3-26.6c5-9.4,8.4-19.6,13.8-28.8c5.4-9.2,12.1-17.5,17.8-26.4
	c5.7-8.9,12-17.4,18.1-26.1c6.1-8.7,12.4-17.2,18.8-25.6c7.6-10.5,14.8-21.2,22.8-31.5c8-10.2,16.1-20.2,24.5-30.1
	c8.3-9.9,15.7-20.7,24.3-30.3c8.7-9.6,18.2-18.5,27.2-27.7c8.3-8.5,16.7-16.8,25.6-24.6c8.9-7.7,18.7-14.5,28.3-21.4
	c9.6-6.9,19.1-14,29.2-20.1c14.7-9.2,31.1-14.8,47.7-19.6c7.9-2.1,15.6-5,23.8-5.2c9.5-1.2,18.5,6.2,19.7,15.7
	c0.1,1.1-0.1,2.2-0.2,3.3c0.3,5.4-0.6,10.7-0.9,16c-2.5,12.8-4.8,25.6-8.9,38.1c-4,12.4-9.2,24.4-14.8,36.2
	c-4.6,10.3-8.8,20.9-14,30.8c-5.3,10-11.6,19.4-17.5,29c-5.9,9.6-11.1,19.7-17.7,28.9c-6.6,9.2-13.4,18.2-20.6,26.9l0.1-0.1
	c-7.3,8.8-16.1,16.3-23.8,24.8c-7.7,8.5-15.5,16.8-23.5,24.9c-8,8.1-15.6,16.7-24,24.5c-8.4,7.8-17.3,14.9-26,22.3
	c-8.7,7.4-16.8,15.5-25.9,22.5c-9,7-18,14.1-27.3,20.7c-9.3,6.6-19.4,12.2-29,18.4c-14.5,9.5-30.1,16.6-46.6,22
	c-8.3,3-16.8,4.1-25.5,3.2c-7.3-0.3-14.5-4.8-15.4-12C1129.9,967.4,1131.4,959.5,1132.3,951.7z"/>
</svg>
